<svg width="643" height="650" viewBox="0 0 643 650" fill="none" xmlns="http://www.w3.org/2000/svg">
<path fill-rule="evenodd" clip-rule="evenodd" d="M69.94 169.893L70.5126 169.924C80.6158 170.505 92.2828 174.795 94.6872 184.625C101.672 159.565 117.599 137.098 138.932 122.211C132.364 136.113 129.798 151.879 131.619 167.147C137.326 152.636 147.871 140.076 161.174 131.942C155.148 140.479 151.701 150.811 151.395 161.256C151.172 168.851 152.731 176.802 157.486 182.729C160.557 186.556 164.758 189.306 169.047 191.691C170.12 192.287 171.203 192.863 172.296 193.418C172.73 193.638 173.165 193.855 173.601 194.068C174.613 194.563 175.632 195.041 176.659 195.501C177.579 195.913 178.504 196.311 179.436 196.695L180.052 196.947C180.666 197.196 181.283 197.438 181.902 197.675L182.922 198.058L183.493 198.267L184.601 198.663L185.021 198.809L185.989 199.138C186.636 199.355 187.285 199.565 187.936 199.768L189.239 200.166L190.089 200.416L191.111 200.706L192.049 200.963L193.392 201.314L193.98 201.462L194.884 201.683L195.407 201.806L196.325 202.017L197.023 202.171L197.472 202.268L198.689 202.52L199.93 202.762L201.125 202.981L202.319 203.186L203.579 203.388L204.736 203.559L205.98 203.73L207.207 203.884L208.316 204.012L209.007 204.085L210.049 204.188L210.79 204.255L211.548 204.318L212.78 204.41L213.179 204.437L214.423 204.511L215.636 204.57L216.816 204.615L217.586 204.637L218.744 204.661L219.286 204.668L220.519 204.675L221.753 204.667L222.284 204.66L223.392 204.637L224.688 204.595L225.442 204.565L226.583 204.508L227.833 204.433L229.048 204.347L230.28 204.246L230.878 204.192L232.075 204.074L233.336 203.936L233.967 203.862L235.101 203.719L236.313 203.553L237.018 203.451L237.604 203.362L238.19 203.27L239.317 203.085L240.062 202.955L240.565 202.865L241.208 202.746L242.43 202.51L242.987 202.397L243.604 202.269L244.689 202.035L245.939 201.751L247.094 201.475L247.747 201.313L248.868 201.026L249.544 200.846L250.693 200.53L251.872 200.192L252.411 200.033L253.115 199.82L254.245 199.468L254.778 199.297L255.353 199.109L256.016 198.889L256.482 198.73L257.165 198.494L258.281 198.098L258.862 197.886L260.016 197.453L261.115 197.027L262.25 196.572L263.276 196.148L264.002 195.84L265.086 195.369L265.623 195.13L266.128 194.901L266.722 194.629L267.292 194.363L267.789 194.128L268.925 193.579L269.446 193.321L269.983 193.052L271.016 192.522L271.638 192.196L272.17 191.913L273.282 191.308L273.72 191.065L274.376 190.695L274.802 190.452L275.357 190.131L275.886 189.82L276.416 189.504L277.453 188.874L278.452 188.251L279.045 187.873L279.504 187.576L280.053 187.216L280.492 186.925L281.074 186.534L281.515 186.233L282.025 185.881L282.586 185.489L283.043 185.164L283.574 184.783C283.786 184.63 283.997 184.476 284.207 184.321C284.284 183.224 284.199 182.263 283.986 181.403C283.113 180.86 282.25 180.263 281.398 179.611C278.424 177.333 275.639 173.501 273.044 168.114L272.361 167.183C268.539 161.916 265.647 156.855 265.47 156.05C264.29 150.686 263.933 145.219 263.998 139.725L263.991 139.692C263.439 135.936 263.71 132.097 264.61 128.252C264.769 126.339 264.946 124.428 265.123 122.523L265.925 123.793L266 123.584C266.887 121.115 268.611 125.832 270.554 131.117L275.35 138.709C272.537 119.559 279.758 99.2151 294.014 86.123C287.005 113.933 295.171 145.086 314.921 165.883C338.073 190.262 374.049 199.592 396.209 224.876C416.109 247.58 421.522 279.136 434.149 306.577L434.572 307.49C439.084 317.137 445.22 326.916 455.024 331.077C464.578 335.131 475.495 332.994 485.638 330.796L514.109 324.625C504.162 346.617 474.805 357.31 453.045 346.866C460.135 357.078 473.23 362.762 485.532 360.966C503.326 358.369 517.212 341.983 535.168 341C539.879 340.742 545.008 341.802 548.136 345.334C552.641 350.42 551.014 359.023 545.967 363.571C540.921 368.12 533.56 369.227 526.81 368.46C535.095 365.326 543.922 348.573 538.014 349.199C523.744 350.711 501.139 362.323 485.002 374.973C488.599 373.992 492.877 374.632 496.531 373.89C505.082 372.153 508.241 370.507 515.664 368.46C511.715 376.93 502.097 378.842 492.229 383.682C507.872 381.432 522.828 376.997 538.471 374.747C544.114 373.935 558.596 379.327 558.25 381.736C558.128 382.58 548.089 382.43 546.37 382.384C539.743 382.206 534.922 380.942 529.16 384.219C512.865 393.486 490.082 394.715 472.564 388.041L475.55 390.311L477.801 392.009C488.331 399.907 499.265 407.419 511.715 411.52C526.075 416.25 543.077 415.686 554.948 406.376L555.355 406.052C564.563 398.6 576.169 394.16 587.999 393.564C574.607 399.995 562.305 408.691 551.776 419.172C561.237 413.279 573.78 412.695 583.748 417.684C576.156 417.839 568.612 419.952 562.043 423.761C559.384 425.303 556.568 428.456 558.25 431.029C559.006 432.186 560.44 432.685 561.796 432.959C572.361 435.096 582.177 428.392 591.083 421.917L593.766 419.963C603.37 412.984 616.578 406.88 626.509 413.387C607.259 424.131 593.896 445.296 572.51 450.646C555.437 454.918 537.678 447.844 522.117 439.622L518.332 437.614L516.757 436.786C507.986 432.202 498.832 428.012 489.108 428.727C477.385 429.587 465.858 441.625 470.475 452.434C473.483 459.474 481.733 462.732 489.354 463.458C496.976 464.184 504.783 463.128 512.238 464.867C528.885 468.75 539.571 483.659 552.251 495.152L555.15 497.745L556.006 498.502C562.813 504.495 571.928 511.874 581.513 514.602C592.29 517.67 603.732 514.489 609.859 514.602C622.364 514.832 635.835 518.732 642.995 528.987L641.142 528.46L639.885 528.112C632.369 526.064 625.309 524.727 618.338 526.208C614.937 526.931 594.405 538.761 572.51 530.227C555.019 523.41 541.061 508.426 533.967 503.133C523.571 495.377 490.199 477.783 493.879 481.725C494.309 483.04 492.665 482.662 489.538 481.041L490.072 482.189C496.231 495.7 496.717 506.317 491.529 514.04C486.129 522.079 478.207 523.28 467.763 517.642L465.381 516.043C459.271 511.93 455.099 509.012 452.864 507.29C450.715 505.634 456.236 541.382 467.763 552.631C473.158 557.895 490.538 561.308 505.232 568.285C509.39 570.26 514.019 574.278 519.12 580.341C512.173 576.844 506.026 574.613 500.68 573.648C477.513 569.466 460.918 574.743 451.057 561.847C441.197 548.952 442.449 544.291 441.405 533.307L439.565 514.04C428.386 530.463 417.921 541.268 408.169 546.455C399.436 551.1 390.626 551.049 381.739 546.303L381.323 546.077L381.509 546.188C388.836 550.507 395.204 553.494 400.614 555.147C406.721 557.013 414.445 558.048 423.784 558.251C396.966 574.493 373.57 572.619 353.595 552.631L352.509 551.536C341.62 540.486 326.585 522.788 318.328 496.859L317.713 494.902C314.142 483.645 310.863 476.719 313.564 455.161L313.876 452.743C314.536 447.423 315.257 438.524 313.742 430.065C313.075 426.338 310.624 420.833 306.387 413.55C289.088 434.162 279.829 454.581 278.609 474.806C277.389 495.032 281.866 518.246 292.041 544.449L292.246 544.995L292.405 545.451C294.67 547.855 296.866 550.689 298.912 554.128C309.416 571.79 323.921 588.759 324.626 609.296C325.067 622.135 319.54 635.057 309.952 643.607C318.069 622.538 311.807 596.758 294.997 581.707L294.484 581.254C276.164 565.291 264.528 541.884 262.861 517.642C262.991 518.125 263.132 518.594 263.283 519.048C261.072 508.611 260.099 497.955 260.365 487.078L260.396 485.951C260.773 474.147 262.644 457.533 266.008 436.108L265.15 438.432C261.872 447.41 259.57 454.876 258.853 458.989C253.704 488.519 254.571 526.664 258.853 546.645L256.436 547.425C217.735 559.867 197.087 564.258 194.491 560.601L185.3 546.645C156.969 497.008 148.859 432.551 161.914 375.322L162.316 373.59L162.059 374.352C156.919 389.719 152.218 412.277 150.749 432.605L150.657 433.935C149.259 455.394 151.678 474.117 150.777 478.124L150.749 478.243C148.087 488.404 161.425 527.47 177.316 554.559C187.475 571.876 203.366 581.502 201.472 584.685C200.007 587.146 177.661 572.483 159.343 555.167L158.312 554.185C141.55 538.092 128.742 519.841 128.418 522.878C126.509 540.791 150.749 576.203 150.749 580.148L150.744 581.981C150.666 598.674 149.438 612.353 143.404 626.586L142.918 627.717C139.565 635.415 134.96 643.617 126.869 645.42C134.659 633.598 140.228 620.317 143.201 606.475C144.504 600.408 145.313 594.133 144.366 588C143.118 579.911 138.895 572.57 133.965 566.036C121.391 549.372 103.071 535.164 99.7791 514.55C98.0777 503.894 100.784 493.033 100.409 482.249C100.049 471.884 96.8555 461.832 95.5965 451.537C92.4347 425.684 102.361 398.564 121.467 380.86C100.877 382.856 81.0188 391.775 65.8497 405.84C58.8473 412.333 52.7568 419.929 44.7748 425.171C34.5567 431.881 22.1463 434.16 10.1092 436.291C31.8258 421.751 50.6596 402.924 65.2067 381.212C53.9036 395.817 36.7173 405.73 18.4154 408.202L19.6937 407.367C30.9705 399.944 41.8111 391.237 48.4201 379.498C55.2785 367.315 56.6712 351.203 48.6842 339.729C40.6971 328.255 22.0888 324.633 12.3091 334.623C22.5222 321.699 38.1927 313.235 54.6014 311.781C70.638 310.36 91.4207 312.732 105.606 305.017C81.1298 300.06 56.3468 296.62 31.446 294.725C26.7273 294.366 21.0481 293.597 15.8461 292.639C10.5474 291.95 5.98989 290.931 2.42676 289.13C2.03302 288.952 1.69047 288.776 1.40591 288.602C1.2845 288.527 1.17201 288.455 1.06805 288.386L0.82916 288.223L0.770874 288.177C-1.60324 286.392 2.10972 286.209 3.79323 285.658C3.05931 284.788 1.06904 284.246 0.953209 283.415C0.944427 283.352 0.966926 283.286 1.01352 283.217L0.955624 283.036C0.872925 282.124 3.13348 282.058 3.05078 281.146C2.39297 279.84 1.20224 279.763 1.1821 279.118L1.07062 278.994C0.551806 278.385 0.644784 277.929 2.82568 277.955L3.05078 277.959C8.00858 278.083 10.3132 278.466 14.7936 280.506L14.8647 280.525L13.8284 279.401C12.5483 277.989 11.0324 276.05 12.5844 275.344C12.6311 275.312 12.6879 275.289 12.7553 275.276C13.0374 275.176 13.403 275.11 13.8644 275.084C21.4173 274.664 22.3743 278.551 28.6112 278.645L30.1211 278.663C55.1971 278.915 100.175 276.426 98.6091 275.887C97.0117 275.337 66.0827 252.827 46.9366 253.375C37.4536 253.647 27.427 256.906 18.8348 252.884C34.5415 246.39 52.6947 244.376 68.5338 250.541C77.4722 254.02 85.2723 259.895 93.9568 263.967C112.7 272.754 135.468 272.435 153.958 263.125C133.558 263.606 113.057 258.911 94.9002 249.601C120.94 252.393 147.579 249.46 172.388 241.069C153.29 230.052 131.247 225.29 109.104 224.445L105.958 224.445C100.956 224.433 97.1333 224.37 94.241 224.446L93.3064 224.476C66.0312 225.577 39.2214 231.522 12.4176 236.691C11.5183 236.864 10.5344 236.962 9.53272 236.976L9.28196 236.978C4.93032 236.978 0.347528 235.384 0.955624 231.462C14.5862 231.212 26.5645 223.027 38.872 217.164C54.7648 209.592 72.3676 205.639 89.9712 205.675L90.9314 205.681L91.8915 205.695C91.6339 205.408 91.3735 205.123 91.1105 204.84L90.5291 204.224L90.0141 203.692L89.4928 203.167C88.828 202.504 88.1483 201.857 87.4545 201.225L86.8551 200.686L86.2598 200.165L85.439 199.467L84.9296 199.045L84.3732 198.595L83.6039 197.989L83.2517 197.719L82.715 197.313L81.8707 196.693L81.3039 196.289L80.437 195.688L80.284 195.584C79.856 195.294 79.4244 195.01 78.9895 194.73L78.5307 194.439L77.9681 194.088L77.362 193.72L76.6906 193.322L75.8648 192.848L75.1601 192.456L74.5637 192.134L73.9809 191.826L73.1024 191.377L72.4409 191.05L71.4923 190.598L70.8045 190.282L69.9424 189.9L69.0336 189.514L68.315 189.22C67.8701 189.041 67.4233 188.867 66.9745 188.699L66.2998 188.45C65.6477 188.214 64.9917 187.988 64.3321 187.774C64.0404 187.679 63.7484 187.587 63.4557 187.496L62.8144 187.302C62.5918 187.236 62.3687 187.171 62.1453 187.107L61.4869 186.924C51.5014 184.2 43.2769 175.802 40.7619 165.762C49.4317 170.601 60.0022 169.392 69.94 169.893ZM111.072 306.148L111.269 306.209C113.899 307.005 117.601 307.894 122.1 308.596C118.432 307.745 114.756 306.929 111.072 306.148ZM15.5315 276.105L15.5434 276.111L16.1353 276.324C16.6539 276.507 17.2366 276.701 17.8884 276.9L17.3814 276.662C16.7846 276.392 16.169 276.16 15.5315 276.105Z" fill="white"/>
<path fill-rule="evenodd" clip-rule="evenodd" d="M308.624 366.966C306.447 366.525 303.899 366.194 302.259 367.693C285.08 383.386 275.917 405.86 268.609 427.95C263.668 442.886 259.304 458.128 257.795 473.788C256.581 486.387 257.231 499.083 257.882 511.724C258.478 523.295 259.074 534.867 259.67 546.439C258.338 547.337 234.093 510.75 242.468 462.595C250.842 414.44 272.047 372.349 286.414 358.11C306.632 343.316 328.615 371.019 308.624 366.966Z" fill="#E7EAEE"/>
<path d="M67.7313 254.857C76.2524 258.291 83.3318 264.501 91.3769 268.936C100.14 273.768 109.919 276.425 119.676 278.645C153.208 286.273 54.6417 249.583 67.7313 254.857Z" fill="white"/>
<path fill-rule="evenodd" clip-rule="evenodd" d="M269.313 279.308C292.878 260.941 297.348 270.449 302.701 267.893C296.523 272.941 289.858 278.875 289.2 286.825C288.793 291.737 290.819 296.492 292.878 300.971C295.735 307.183 298.803 313.42 303.393 318.487C312.725 328.787 272.312 305.404 268.917 297.788C267.351 294.274 265.749 290.547 266.176 286.723C266.477 284.028 267.417 280.786 269.313 279.308Z" fill="#E7EAEE"/>
<path d="M276.079 237.033C277.126 231.86 281.327 227.95 285.617 224.875C298.649 215.531 314.706 210.479 330.741 210.677C329.648 210.161 332.034 210.503 334.529 212.586C337.636 215.178 339.252 217.061 340.503 221.588C336.417 220.83 332.633 218.54 330.067 215.27C331.158 221.049 336 225.935 341.769 227.078C338.52 227.923 335.546 229.792 333.377 232.354C338.702 230.397 345.258 232.687 348.206 237.534C340.102 236.478 331.577 239.311 325.717 245.009C334.752 241.647 345.681 244.182 352.314 251.176C339.144 250.16 325.937 249.62 312.727 249.557C319.678 250.95 326.032 255.119 330.077 260.94C329.122 260.943 323.25 260.354 312.727 257.478C306.154 255.682 287.543 249.557 287.543 249.557C287.543 249.557 285.609 248.393 284.739 247.827C278.351 243.666 275.464 240.068 276.079 237.033Z" fill="white"/>
<ellipse cx="294.903" cy="222.145" rx="3.18778" ry="3.74814" fill="#FFB61D"/>
<path fill-rule="evenodd" clip-rule="evenodd" d="M285.986 0.674782C285.516 0.80558 284.773 0.716613 284.847 0.234506C285.128 0.0902908 285.443 -0.0580997 285.748 0.0229957C286.053 0.104091 286.252 0.54591 286.006 0.74461L285.986 0.674782Z" fill="#00160A"/>
<ellipse cx="307.686" cy="243" rx="3.50152" ry="4" fill="#FFB61D"/>
<path fill-rule="evenodd" clip-rule="evenodd" d="M553.016 495.84L552.74 495.593C549.5 492.692 546.397 489.557 543.298 486.428C534.06 477.098 524.863 467.811 512.238 464.867C507.685 463.805 503.001 463.785 498.308 463.765C495.317 463.753 492.322 463.74 489.354 463.458C481.733 462.732 473.483 459.474 470.475 452.434C465.858 441.625 477.385 429.587 489.108 428.727C500.094 427.92 510.353 433.372 520.152 438.58C520.809 438.929 521.464 439.277 522.117 439.622C537.678 447.844 555.437 454.918 572.51 450.646C585.223 447.465 595.102 438.696 605.067 429.849C611.865 423.814 618.703 417.744 626.509 413.387C616.578 406.88 603.37 412.984 593.766 419.963C593.306 420.297 592.844 420.634 592.379 420.973C583.132 427.718 572.876 435.2 561.796 432.959C560.44 432.685 559.006 432.186 558.25 431.029C556.568 428.456 559.384 425.303 562.043 423.761C568.612 419.952 576.156 417.839 583.748 417.684C573.78 412.695 561.237 413.279 551.776 419.172C562.305 408.691 574.607 399.995 587.999 393.564C576.169 394.16 564.563 398.6 555.355 406.052C543.468 415.672 526.24 416.305 511.715 411.52C497.19 406.736 484.729 397.309 472.564 388.041C490.082 394.715 512.865 393.486 529.16 384.219C533.728 381.621 537.705 381.877 542.458 382.184C543.701 382.264 544.996 382.347 546.37 382.384C548.089 382.43 558.128 382.58 558.25 381.736C558.596 379.327 544.114 373.935 538.471 374.747C530.65 375.872 523 377.543 515.35 379.215C507.7 380.886 500.05 382.557 492.229 383.682C494.595 382.522 496.948 381.529 499.211 380.574C506.384 377.548 512.662 374.899 515.664 368.46C512.901 369.222 510.728 369.928 508.648 370.605C505.142 371.745 501.898 372.799 496.531 373.89C494.848 374.232 493.033 374.28 491.213 374.329C489.081 374.386 486.943 374.443 485.002 374.973C501.139 362.323 523.744 350.711 538.014 349.199C543.922 348.573 535.095 365.326 526.81 368.46C533.56 369.227 540.921 368.12 545.967 363.571C551.014 359.023 552.641 350.42 548.136 345.334C545.008 341.802 539.879 340.742 535.168 341C525.736 341.516 517.427 346.283 509.085 351.068C501.546 355.393 493.979 359.733 485.532 360.966C473.23 362.762 460.135 357.078 453.045 346.866C474.805 357.31 504.162 346.617 514.109 324.625L485.638 330.796C475.495 332.994 464.578 335.131 455.024 331.077C445.22 326.916 439.084 317.137 434.572 307.49C430.213 298.167 426.719 288.35 423.232 278.551C416.376 259.286 409.546 240.093 396.209 224.876C384.776 211.831 369.665 203.033 354.535 194.224C340.34 185.958 326.128 177.684 314.921 165.883C295.171 145.086 287.005 113.933 294.014 86.123C279.758 99.2151 272.537 119.559 275.35 138.709L265.123 122.523C264.085 133.699 263.059 145.088 265.469 156.05C267.88 167.012 274.327 177.679 284.543 182.328C269.952 168.937 262.958 147.768 266.698 128.32C268.554 135.003 272.749 141.012 278.382 145.057C275.117 125.535 280.003 104.778 291.634 88.7622C284.664 118.776 295.266 152.215 318.255 172.731C328.145 181.557 339.856 187.941 351.562 194.322C363.741 200.962 375.915 207.598 386.026 216.979C406.113 235.614 415.64 262.697 424.292 288.694C429.378 303.973 435.309 320.468 448.901 329.104C467.252 340.764 491.237 333.364 511.573 325.673C500.748 347.333 469.779 355.767 449.466 342.587C453.902 355.262 467.232 364.23 480.644 363.562C490.43 363.075 499.443 358.132 508.346 353.25C519.148 347.326 529.788 341.49 541.448 343.814C543.333 344.19 545.227 344.809 546.703 346.041C550.914 349.558 549.871 356.748 546.037 360.671C542.202 364.595 536.596 366.098 531.277 367.441C535.96 364.627 541.021 361.341 542.536 356.091C544.052 350.841 543.084 347.69 538.471 347.69C520.56 347.69 501.007 360.963 484.954 371.861C483.511 372.839 482.098 373.799 480.716 374.729C491.596 376.955 503.225 375.321 513.071 370.184C503.98 377.199 492.673 381.297 481.199 381.736C491.909 389.015 505.242 385.329 518.603 381.635C531.834 377.976 545.093 374.311 555.857 381.279C544.823 376.866 533.29 380.875 521.614 384.933C511.352 388.5 500.978 392.105 490.734 390.066C488.461 389.613 486.16 388.889 483.862 388.165C478.108 386.354 472.369 384.547 467.12 387.025C480.862 398.477 496.675 407.435 513.562 413.335C522.522 416.466 532.322 418.74 541.432 416.078C547.346 414.35 552.433 410.701 557.508 407.059C562.998 403.121 568.475 399.191 574.973 397.712C562.903 405.082 552.259 414.781 543.801 426.115C554.246 417.814 568.457 414.455 581.513 417.202C578.933 418.013 576.217 418.265 573.505 418.517C570.341 418.81 567.183 419.103 564.256 420.283C558.819 422.474 555.017 430.389 559.592 434.051C561.032 435.204 562.938 435.59 564.778 435.71C574.971 436.373 583.805 430.238 592.6 424.131C601.717 417.8 610.792 411.499 621.295 412.825C611.257 422.955 601 433.118 588.716 440.363C576.432 447.607 561.725 451.741 547.77 448.8C538.924 446.936 530.988 442.418 523.083 437.917C520.988 436.725 518.895 435.533 516.788 434.393C506.731 428.949 495.239 424.475 484.064 426.906C472.888 429.336 463.285 441.324 467.231 452.059C470.079 459.806 478.559 464.029 486.68 465.511C490.204 466.154 493.788 466.427 497.368 466.7C502.038 467.057 506.703 467.413 511.226 468.588C524.416 472.016 534.275 481.619 544.23 491.314C551.687 498.577 559.197 505.893 568.202 510.704C576.838 515.318 578.503 517.384 580.622 518.093C582.646 518.771 585.085 518.211 594.405 517.452C609.393 516.232 626.611 515.412 637.079 526.208C625.403 519.866 617.862 522.747 609.298 526.018C602.688 528.543 595.468 531.301 585.266 530.227C570.766 528.702 559.213 518.947 547.726 509.248C543.452 505.639 539.186 502.038 534.782 498.871C531.962 496.843 529.354 494.836 526.867 492.922C515.033 483.812 505.933 476.808 489.658 479.708C493.892 488.5 495.082 498.723 492.981 508.252C491.895 513.177 489.557 518.346 484.965 520.431C479.021 523.131 472.214 519.589 466.833 515.891C456.292 508.646 446.47 500.356 437.557 491.183C436.758 490.361 435.963 489.529 435.167 488.696C430.005 483.295 424.783 477.831 418.11 474.569C397.953 464.716 373.218 479.5 362.273 499.086C365.91 485.467 376.513 473.907 389.769 469.112C403.024 464.316 418.569 466.415 430.077 474.555C432.639 476.367 435.187 478.499 437.751 480.644C446.041 487.578 454.502 494.656 464.158 491.549C453.986 492.122 446.027 485.464 437.899 478.664C432.926 474.504 427.89 470.291 422.245 467.648C406.404 460.232 387.066 466.309 373.371 477.189C364.877 483.936 357.348 495.413 362.35 505.039C370.095 484.308 393.857 468.112 414.499 476.092C423.065 479.403 429.677 486.112 436.175 492.706C437.13 493.674 438.082 494.64 439.038 495.593C446.591 503.122 454.734 510.059 463.368 516.321C468.409 519.976 474.136 523.549 480.347 523.105C488.977 522.488 495.34 513.973 496.531 505.404C497.722 496.835 496.566 489.949 493.879 481.725C490.199 477.783 523.571 495.377 533.967 503.133C535.719 504.44 537.888 506.337 540.425 508.556C548.168 515.326 559.336 525.093 572.51 530.227C590.822 537.364 608.181 530.257 615.362 527.317C616.766 526.742 617.782 526.327 618.338 526.208C626.262 524.525 634.302 526.482 642.995 528.987C635.835 518.732 622.363 514.832 609.859 514.602C608.001 514.568 605.656 514.836 602.988 515.142C596.856 515.844 589.023 516.74 581.513 514.602C570.443 511.451 560.001 502.097 553.016 495.84ZM488.633 382.922C489.572 382.653 490.584 382.641 491.529 382.887L491.473 383.071C490.526 383.162 489.565 383.111 488.633 382.922ZM67.7312 254.857C72.9051 256.942 77.5475 260.05 82.1973 263.164L82.1975 263.164C85.2055 265.178 88.2167 267.194 91.3768 268.936C100.14 273.768 109.919 276.425 119.676 278.645C153.208 286.273 187.802 289.223 222.142 287.383C234.046 286.746 246.255 285.441 256.847 279.97C270.039 273.157 279.675 259.852 282.034 245.193C276.766 245.503 273.031 239.206 274.078 234.033C275.126 228.86 279.327 224.95 283.616 221.875C296.649 212.531 312.706 207.479 328.741 207.677C327.689 207.181 326.925 206.584 326.148 205.976C325.111 205.166 324.05 204.337 322.249 203.702C326.392 201.779 330.745 202.957 334.262 205.872C332.558 202.643 332.845 198.462 334.973 195.496C338.954 203.513 345.759 210.092 353.905 213.801C345.332 212.117 337.852 205.684 334.904 197.46C334.188 202.506 335.712 207.821 338.959 211.744C335.042 207.438 329.603 204.535 323.84 203.702C331.824 206.53 338.247 213.424 340.503 221.588C336.417 220.83 332.633 218.54 330.067 215.27C331.158 221.049 335.999 225.935 341.769 227.078C338.52 227.923 335.546 229.792 333.377 232.354C338.702 230.397 345.257 232.687 348.206 237.534C340.101 236.478 331.577 239.311 325.717 245.009C334.751 241.647 345.681 244.182 352.314 251.176C339.144 250.16 325.936 249.62 312.727 249.557C319.678 250.95 326.032 255.119 330.077 260.94C325.826 260.953 321.581 259.602 318.119 257.136C321.274 256.689 324.576 257.361 327.306 259.004C321.64 254.046 314.672 250.589 307.296 249.074C321.189 247.535 335.275 247.751 349.114 249.714C341.758 244.593 331.794 243.456 323.473 246.789C328.004 239.573 336.849 235.318 345.314 236.279C341.602 232.677 335.393 231.996 330.989 234.709C331.755 230.995 334.774 227.841 338.451 226.913C335.616 225.433 332.673 223.861 330.821 221.253C328.968 218.645 328.609 214.677 330.901 212.445C332.267 215.279 334.492 217.688 337.197 219.291C337.522 219.572 337.91 219.79 338.379 219.925C337.976 219.73 337.582 219.519 337.197 219.291C336.128 218.364 335.737 216.741 335.333 215.061C334.941 213.432 334.535 211.749 333.485 210.595C331.931 208.887 329.327 208.748 327.019 208.837C310.151 209.487 293.569 216.043 280.816 227.102C277.667 229.834 274.491 233.915 276.069 237.774C276.844 239.67 278.605 240.95 280.282 242.127L291.854 250.252C289.195 250.012 286.591 249.189 284.275 247.86C281.074 262.444 270.956 275.351 257.558 281.943C247.75 286.767 236.663 288.24 225.77 289.124C193.952 291.707 161.775 289.827 130.475 283.556C128.18 283.096 125.887 282.613 123.593 282.129L123.592 282.128C115.126 280.343 106.654 278.556 98.033 277.959C87.7356 277.247 75.5228 278.117 63.5595 278.97C45.3367 280.269 27.6927 281.526 18.278 277.086C18.1789 277.039 18.0794 276.991 17.9794 276.943L17.9758 276.942C16.9274 276.44 15.8224 275.91 14.6417 276.153C11.713 276.153 14.6116 278.265 17.3303 280.247C18.5341 281.124 19.7027 281.976 20.3144 282.607C17.3204 281.978 14.7474 281.419 12.1744 280.86C9.60145 280.301 7.02847 279.742 4.03446 279.113C-1.95357 277.854 9.72935 282.98 13.8644 283.763C12.9349 283.695 11.5667 283.547 10.0909 283.388C5.55274 282.9 -0.00295059 282.301 3.05074 283.556C5.07412 284.388 6.96018 285.062 8.84624 285.737C10.7323 286.411 12.6184 287.086 14.6417 287.917C13.6193 287.892 12.0977 287.782 10.4754 287.665L10.474 287.665C5.77079 287.324 0.222007 286.922 3.53301 288.357C7.98647 290.286 24.4901 292.485 35.67 293.264C64.1333 295.249 92.5844 298.634 120.279 305.497C123.667 306.336 127.054 307.229 130.446 308.123C145.441 312.074 160.51 316.045 175.93 315.508C175.936 317.463 173.331 318.124 171.375 318.097C159.489 317.935 147.868 314.991 136.32 312.065L136.32 312.065L136.311 312.062C134.907 311.707 133.505 311.352 132.104 311.002C99.0885 302.758 65.3766 297.307 31.446 294.725C20.8476 293.918 5.40349 291.047 1.40587 288.602C-1.44409 286.858 0.623281 286.4 2.49373 285.985C3.24694 285.817 3.96822 285.657 4.32361 285.423L4.28668 285.411C3.01815 284.977 1.3503 284.406 0.955584 283.036C0.914235 282.58 1.4587 282.335 2.00316 282.091C2.54763 281.847 3.09209 281.602 3.05074 281.146C3.01559 280.759 2.44736 280.261 1.89182 279.774C0.783694 278.803 -0.273898 277.876 3.05074 277.959C8.04212 278.084 10.3443 278.471 14.8849 280.548C14.7523 280.397 14.5821 280.215 14.3906 280.01C12.8677 278.379 9.99107 275.3 13.8644 275.084C17.9545 274.856 20.1103 275.892 22.2178 276.904C24.0021 277.761 25.7517 278.601 28.6112 278.645C53.3419 279.017 100.207 276.437 98.6091 275.887C98.3503 275.798 97.3219 275.133 95.6987 274.082C87.3007 268.649 62.9813 252.916 46.9366 253.375C44.1739 253.454 41.3651 253.787 38.5591 254.119L38.5588 254.119C31.7331 254.928 24.9237 255.734 18.8347 252.884C34.5414 246.39 52.6947 244.376 68.5337 250.541C73.6181 252.52 78.3341 255.274 83.0542 258.031L83.0544 258.031C86.6322 260.12 90.2123 262.211 93.9568 263.967C112.7 272.754 135.468 272.435 153.958 263.125C133.558 263.606 113.057 258.911 94.9002 249.601C120.94 252.393 147.579 249.46 172.388 241.069C148.743 227.429 120.582 223.376 93.3064 224.476C69.7374 225.427 46.516 229.996 23.3457 234.555L23.3453 234.555L23.3418 234.556C19.6995 235.272 16.0585 235.989 12.4176 236.691C7.54611 237.63 0.195465 236.364 0.955584 231.462C11.5764 231.267 21.194 226.255 30.7459 221.277L30.7465 221.277C33.4531 219.866 36.1545 218.458 38.8719 217.164C55.3427 209.317 73.6501 205.357 91.8915 205.695C83.8305 196.704 73.1368 190.102 61.4869 186.924C51.5014 184.2 43.2769 175.802 40.7619 165.762C47.519 169.534 55.4307 169.631 63.2976 169.728C65.7185 169.758 68.1351 169.787 70.5126 169.924C80.6158 170.505 92.2828 174.795 94.6872 184.625C101.672 159.565 117.599 137.098 138.932 122.211C132.364 136.113 129.798 151.879 131.619 167.147C137.326 152.636 147.871 140.076 161.174 131.942C155.148 140.479 151.701 150.811 151.394 161.256C151.172 168.851 152.731 176.802 157.486 182.729C160.557 186.556 164.758 189.306 169.047 191.691C204.799 211.57 252.105 208.364 284.849 183.844C273.613 196.744 256.964 204.14 240.021 206.506C223.078 208.872 205.785 206.566 189.162 202.526C174.813 199.038 159.403 193.135 152.642 180.007C145.553 166.241 150.506 149.399 157.465 135.567C146.098 145.088 136.975 157.271 131.037 170.859C128.333 157.136 129.349 142.699 133.949 129.491C114.763 144.645 101.124 166.67 96.1049 190.598C91.9993 180.035 81.4811 172.275 70.1776 171.469C67.1324 171.252 64.0115 171.486 60.9046 171.719C55.1201 172.153 49.3842 172.583 44.2762 170.09C46.989 178.228 55.6762 181.462 64.109 184.601L64.1095 184.602C66.3329 185.429 68.5387 186.25 70.6126 187.153C81.4269 191.86 90.103 200.3 98.5202 208.562C82.1833 205.234 65.1665 209.011 49.6059 214.997C41.8431 217.984 34.307 221.513 26.771 225.043C19.201 228.588 11.631 232.134 3.83133 235.129C13.7124 235.455 23.4303 233.003 33.033 230.58C33.6324 230.429 34.2314 230.277 34.83 230.127C72.8308 220.581 113.823 214.124 150.5 227.91C153.839 229.165 157.117 230.581 160.394 231.996C165.013 233.991 169.631 235.986 174.417 237.529C202.277 246.513 232.54 239.424 260.664 231.307C237.45 244.005 209.858 248.511 183.81 243.859C176.164 242.493 168.468 244.634 160.917 246.734L160.916 246.735C159.776 247.052 158.641 247.368 157.509 247.671C141.746 251.888 125.328 253.65 109.029 252.875C132.221 263.278 158.201 261.132 184.175 258.986C210.25 256.832 236.32 254.679 259.557 265.223C227.744 257.776 194.254 257.585 162.358 264.669C159.09 265.395 155.801 266.196 152.498 267C135.982 271.021 119.142 275.122 103.118 270.277C96.0404 268.137 89.6475 264.369 83.2472 260.597C77.573 257.252 71.8931 253.905 65.7251 251.685C52.9093 247.073 38.2851 247.727 25.932 253.464C39.9044 251.482 54.6416 249.583 67.7312 254.857ZM339.586 212.461C339.381 212.218 339.172 211.979 338.959 211.744C339.161 211.989 339.37 212.228 339.586 212.461ZM316.585 217.499L315.744 216.664C316.809 215.211 316.727 213.027 315.557 211.658C315.821 211.161 316.604 211.186 317.014 211.571C317.424 211.956 317.552 212.548 317.641 213.104C317.893 214.673 317.868 216.562 316.585 217.499ZM315.852 236.13C317.144 233.594 317.433 230.563 316.644 227.828C316.06 227.824 315.482 227.575 315.078 227.153C315.687 230.094 315.564 233.183 314.724 236.066C315.073 235.878 315.526 235.904 315.852 236.13ZM289.558 227.828C289.07 227.892 288.784 228.402 289 228.843C290.339 231.571 294.644 239.804 299.012 242.369C299.348 242.375 299.68 242.177 299.835 241.877C295.517 239.125 291.328 230.434 290.327 228.256C290.191 227.96 289.88 227.786 289.558 227.828ZM315.758 254.576L313.984 252.887C314.993 252.518 316.225 252.899 316.85 253.773C317.475 254.647 317.437 255.937 316.762 256.772C316.485 257.115 316.101 257.387 315.666 257.458C315.332 257.512 314.992 257.447 314.66 257.381C313.331 257.119 311.977 256.849 310.791 256.195C309.604 255.541 308.59 254.429 308.402 253.088C310.332 254.671 312.763 255.636 315.254 255.807L315.758 254.576ZM308.673 256.872C303.734 257.795 298.861 259.065 294.1 260.67C298.193 260.784 302.245 262.083 305.642 264.369C310.002 267.303 315.161 269.038 320.408 269.336C314.81 270.737 308.561 269.193 304.26 265.346C302.186 263.49 299.387 262.605 296.613 262.379C293.839 262.152 291.055 262.532 288.301 262.929C292.262 259.151 297.778 257.582 303.06 256.142C305.002 255.613 307.478 255.252 308.673 256.872ZM302.701 267.893C297.348 270.448 292.682 274.427 289.313 279.308C287.773 281.54 286.477 284.028 286.176 286.723C285.749 290.547 287.351 294.273 288.917 297.788C292.311 305.404 295.791 313.155 301.346 319.374C309.953 329.011 322.296 333.76 334.526 338.466C337.724 339.696 340.913 340.923 344.026 342.234C386.403 360.078 418.433 396.392 442.667 435.468L442.875 435.804C446.022 440.881 449.301 446.171 454.426 449.216C428.219 401.666 390.084 358.416 339.751 338.056C337.582 337.179 335.378 336.334 333.166 335.487L333.166 335.487C322.241 331.301 311.154 327.053 303.393 318.487C298.802 313.419 295.735 307.183 292.878 300.97C290.819 296.492 288.793 291.737 289.2 286.825C289.858 278.875 296.523 272.941 302.701 267.893ZM163.366 487.506C165.168 497.166 167.443 506.775 170.979 515.943C174.227 524.366 178.532 532.381 183.76 539.741C164.718 519.234 159.133 489.782 157.024 461.877C155.34 439.586 155.347 417.168 157.047 394.878C150.576 428.607 149.263 463.663 156.678 497.197C164.092 530.732 180.612 562.709 206.09 585.74C207.168 586.714 206.152 588.693 204.731 588.996C203.311 589.298 201.901 588.546 200.644 587.817C174.003 572.356 147.16 554.271 132.557 527.151C131.943 526.012 131.599 524.181 132.831 523.784C149.783 548.082 172.288 568.481 198.129 582.973C165.04 550.909 149.193 503.939 147.922 457.881C146.651 411.823 158.741 366.352 174.872 323.192C176.95 317.633 179.246 311.878 183.677 307.93C159.324 364.005 152.153 427.407 163.366 487.506ZM475.624 466.887C472.288 467.705 468.676 467.347 465.565 465.89C472.363 470.691 478.545 476.362 483.915 482.72C480.087 481.849 476.537 479.797 473.872 476.915L479.41 487.207L470.037 478.941L473.1 487.737C457.149 474.804 444.323 458.465 431.531 442.171C415.907 422.268 400.335 402.431 379.185 388.949C356.715 374.626 330.005 368.87 303.932 363.368C305.641 362.254 306.64 360.138 306.414 358.11C292.046 372.349 280.531 389.455 272.745 408.125C269.499 415.909 266.899 423.944 264.304 431.968C260.925 442.413 257.535 452.908 255.799 463.747C253.366 478.944 254.239 494.453 255.118 509.818L257.047 543.507C257.139 545.11 258.338 547.336 259.67 546.439L257.882 511.723C257.231 499.083 256.581 486.387 257.795 473.788C259.304 458.128 263.667 442.886 268.609 427.95C275.917 405.86 285.08 383.386 302.258 367.693C303.899 366.194 306.447 366.525 308.624 366.966C328.615 371.019 348.443 376.549 366.749 385.546C385.055 394.543 401.856 407.16 413.861 423.65C431.241 447.522 450.783 469.819 472.172 490.177C473.918 489.557 475.098 487.632 474.859 485.795C476.081 487.745 478.396 488.958 480.695 488.852L480.896 484.149C482.449 485.412 484.877 485.444 486.463 484.223C483.349 478.516 478.772 473.616 473.29 470.122L477.18 469.875C478.691 468.15 476.539 465.674 474.612 464.431L451.961 449.816C458.796 456.802 466.838 462.604 475.624 466.887ZM10.1092 436.291C22.1463 434.16 34.5567 431.881 44.7747 425.171C50.1874 421.616 54.7302 416.979 59.2775 412.338C61.436 410.135 63.5956 407.93 65.8496 405.84C81.0187 391.775 100.877 382.856 121.467 380.86C102.361 398.564 92.4346 425.684 95.5965 451.537C96.1082 455.722 96.9396 459.866 97.7704 464.008C98.9836 470.055 100.196 476.097 100.409 482.249C100.564 486.691 100.195 491.145 99.8277 495.593C99.3025 501.945 98.7784 508.283 99.7791 514.55C102.16 529.459 112.402 541.017 122.645 552.577C126.565 557.001 130.485 561.424 133.965 566.036C138.894 572.57 143.118 579.911 144.366 588C145.313 594.133 144.504 600.408 143.201 606.475C140.228 620.317 134.659 633.598 126.869 645.42C135.358 643.528 140.01 634.593 143.404 626.586C149.658 611.835 155.576 595.425 150.749 580.148C148.799 573.978 145.24 568.542 141.675 563.098C140.029 560.583 138.381 558.066 136.89 555.474C126.514 537.435 123.932 515.084 129.921 495.154C126.832 516.516 131.453 538.909 142.746 557.303C143.821 559.055 144.958 560.778 146.095 562.502L146.095 562.503L146.096 562.504C149.345 567.43 152.597 572.36 154.415 577.942C156.099 583.113 156.47 588.63 156.27 594.064C155.555 613.505 147.413 632.581 133.87 646.547C131.747 648.736 128.461 650.928 125.916 649.247C123.329 647.539 124.133 643.583 125.377 640.744C127.177 636.639 129.301 632.599 131.424 628.559C136.971 618.003 142.517 607.449 142.297 595.74C141.997 579.733 130.944 566.174 120.113 554.384L119.576 553.8C108.896 542.179 97.4974 529.774 95.2769 514.186C94.3798 507.888 95.0766 501.55 95.775 495.197C96.2549 490.831 96.7356 486.459 96.7004 482.087C96.6474 475.513 95.431 469.044 94.2132 462.568C93.3837 458.156 92.5536 453.742 92.0899 449.288C89.6768 426.106 97.7928 402.032 113.749 385.043C97.01 388.38 81.2034 396.277 68.4831 407.658C65.8895 409.978 63.4162 412.444 60.9443 414.909L60.9439 414.909C56.2031 419.636 51.4677 424.357 45.8992 428.037C33.7369 436.073 18.7961 438.398 4.37509 440.53C3.40047 439.274 4.70639 437.553 5.91583 436.52L44.1382 403.898C33.0838 409.037 20.828 411.569 8.64205 411.233C10.3157 410.079 12.0031 408.936 13.6922 407.792L13.6933 407.791L13.6946 407.79L13.6971 407.788L13.7008 407.786C22.7572 401.652 31.857 395.489 39.096 387.337C47.6875 377.661 53.4142 364.397 50.572 351.774C47.7298 339.151 34.1053 328.852 21.764 332.74C18.8063 333.672 16.1487 335.285 13.4863 336.901C11.3775 338.181 9.26571 339.463 6.99938 340.409C11.556 322.67 30.6934 312.51 48.8104 309.823C57.5645 308.524 66.4364 308.451 75.3058 308.378H75.306H75.3061H75.3063H75.3064H75.3065H75.3067H75.3068H75.3069H75.3071C84.793 308.299 94.276 308.221 103.609 306.644C93.983 312.549 82.4965 312.131 70.9269 311.709C65.4406 311.509 59.9356 311.308 54.6014 311.781C38.1927 313.235 22.5222 321.699 12.309 334.623C22.0887 324.633 40.6971 328.255 48.6841 339.729C56.6711 351.203 55.2784 367.315 48.4201 379.498C41.5617 391.68 30.1463 400.597 18.4154 408.202C36.7172 405.73 53.9035 395.817 65.2066 381.212C50.6596 402.924 31.8258 421.751 10.1092 436.291ZM460.128 600.276C450.965 611.469 435.833 616.085 421.389 616.868C406.095 617.698 390.614 614.849 376.618 608.63C373.785 607.37 370.99 605.962 368.55 604.048C366.419 602.376 364.598 600.349 362.796 598.328C343.055 576.185 323.788 552.717 313.445 524.914C311.753 520.369 310.293 515.582 310.701 510.749C316.508 528.489 324.869 545.391 335.446 560.771C342.844 571.527 351.294 581.512 359.729 591.476C362.751 595.046 365.793 598.636 369.393 601.623C377.576 608.413 388.122 611.665 398.574 613.62C416.368 616.947 436.072 616.569 450.917 606.209C451.685 605.673 452.439 605.112 453.193 604.55L453.195 604.548C455.392 602.911 457.591 601.273 460.128 600.276ZM322.437 212.336C323.467 214.241 324.413 216.191 325.273 218.179C325.726 215.802 324.956 213.226 323.273 211.487L322.437 212.336ZM322.888 240.508C324.101 237.222 325.332 233.828 325.19 230.328C325.168 229.792 325.242 229.078 325.77 228.982C327.366 232.937 326.568 237.754 323.781 240.983L322.888 240.508ZM302.436 219.992C306.414 219.993 310.39 220.741 314.096 222.186C310.824 219.72 306.647 218.483 302.56 218.768C301.141 218.867 299.933 220.227 300.002 221.647C300.071 223.067 301.406 224.304 302.827 224.265C302.803 223.642 302.368 223.155 301.941 222.676C301.826 222.547 301.711 222.418 301.605 222.288C301.106 221.674 300.835 220.631 301.49 220.187C301.76 220.004 302.109 219.992 302.436 219.992ZM550.069 600.517C546.307 599.156 542.446 598.091 538.589 597.027L523.31 592.812C498.892 586.077 473.548 579.282 448.541 583.31C444.611 583.943 440.663 584.84 436.714 585.737C425.913 588.191 415.101 590.647 404.619 587.715C403.744 587.47 402.8 586.235 403.655 585.927C414.368 588.845 425.459 586.439 436.476 584.049C439.687 583.353 442.891 582.657 446.078 582.096C457.454 580.091 469.13 579.802 480.591 581.242C491.383 582.597 501.919 585.464 512.412 588.322L542.641 596.556C546.463 597.597 550.292 598.64 554.001 600.033C561.868 602.989 569.139 607.524 575.255 613.29C574.532 613.918 573.451 613.821 572.502 613.685C540.841 609.13 509.599 601.662 479.3 591.406C461.913 585.52 441.431 590.037 428.132 602.69C438.23 604.072 448.682 602.777 458.138 598.973C453.8 602.302 448.489 604.345 443.039 604.783C440.149 605.015 437.186 604.818 434.236 604.621C428.804 604.259 423.417 603.9 418.614 606.231L426.559 600.912C436.237 594.433 446.458 587.754 458.057 586.711C467.244 585.885 476.297 588.7 485.129 591.445C485.545 591.575 485.961 591.704 486.377 591.833C513.672 600.293 541.586 606.754 569.822 611.147C563.804 606.665 557.125 603.071 550.069 600.517ZM306.811 414.68C310.697 421.46 312.948 429.168 313.322 436.973C313.589 442.559 312.912 448.116 312.234 453.678C311.751 457.641 311.268 461.606 311.126 465.586C310.434 484.908 317.79 503.668 327.176 520.57C337.518 539.195 351.307 557.05 370.71 565.845C390.114 574.639 416.02 571.716 428.738 554.625C415.263 558.25 400.393 556.371 388.244 549.507C398.943 550.597 410.267 546.798 417.376 538.729C424.485 530.66 426.743 518.318 422.026 508.654C417.308 498.99 405.424 493.116 395.107 496.15C384.79 499.184 377.919 511.447 381.548 521.57C383.186 526.139 386.842 530.091 391.498 531.461C396.154 532.83 401.699 531.261 404.472 527.277C409.216 520.463 403.795 510.379 396.08 507.31C404.058 505.438 412.544 512.691 412.693 520.885C412.842 529.078 405.481 536.404 397.311 537.047C389.141 537.689 381.111 532.241 377.836 524.729C374.562 517.217 375.761 508.162 380.077 501.196C385.224 492.891 394.643 487.46 404.4 486.935C414.156 486.411 424.01 490.722 430.423 498.094C439.511 508.54 441.2 523.493 440.519 537.323C439.61 555.811 456.826 573.118 475.319 572.306C491.066 571.614 506.98 575.169 520.937 582.495C517.575 572.415 506.618 567.144 496.415 564.173C494.909 563.735 493.382 563.315 491.85 562.893L491.847 562.893L491.843 562.892C482.995 560.458 473.95 557.97 467.555 551.558C461.03 545.015 458.734 535.962 456.414 526.818C455.05 521.443 453.678 516.036 451.434 511.089C453.727 528.361 457.334 547.814 471.946 557.305C477.474 560.896 483.927 562.553 490.355 564.204L490.356 564.205C492.096 564.652 493.834 565.098 495.552 565.582C503.614 567.856 511.966 571.498 516.277 578.68C507.248 572.606 496.032 571.867 485.001 571.14L485.001 571.14L485 571.14C482.616 570.983 480.241 570.826 477.898 570.616C464.716 569.436 449.833 564.788 444.829 552.536C442.634 547.161 442.775 541.263 442.915 535.393V535.393C442.956 533.68 442.997 531.97 442.98 530.276C442.78 510.666 431.718 489.378 412.601 485.009C399.302 481.969 384.384 488.563 377.68 500.444C372.997 508.743 372.388 519.496 377.115 527.77C381.843 536.044 392.163 541.06 401.381 538.646C410.6 536.232 417.274 525.891 414.749 516.703C412.223 507.514 400.124 502.126 392.026 507.149C395.937 508.597 399.766 510.711 402.226 514.078C404.687 517.445 405.475 522.276 403.274 525.818C399.307 532.205 388.465 529.966 384.627 523.501C379.938 515.602 383.615 504.241 391.682 499.847C399.749 495.454 410.657 498.001 416.649 504.964C422.641 511.926 423.728 522.429 420.156 530.892C416.705 539.068 409.14 545.38 400.479 547.312C391.817 549.243 382.287 546.741 375.69 540.806C374.159 542.979 376.528 545.757 378.736 547.237C390.423 555.07 404.387 559.461 418.454 559.725C404.026 570.922 382.685 569.595 366.779 560.622C350.873 551.648 339.508 536.411 330.155 520.725C321.453 506.134 313.906 490.163 313.421 473.181C313.246 467.03 314.005 460.918 314.764 454.801C315.346 450.114 315.928 445.424 316.09 440.711C316.465 429.849 314.1 418.028 305.929 410.862C281.159 438.092 270.999 477.89 279.684 513.661C284.172 532.142 293.235 549.18 303.155 565.406C303.857 566.555 304.566 567.704 305.275 568.854C311.308 578.638 317.399 588.514 320.432 599.565C323.821 611.915 322.721 626.327 314.164 635.855C317.922 620.132 314.425 602.827 304.855 589.797C301.484 585.208 297.449 581.179 293.41 577.148C289.927 573.672 286.443 570.193 283.382 566.352C272.319 552.468 267.458 534.787 262.861 517.642C264.528 541.884 276.164 565.291 294.484 581.254C311.679 596.237 318.151 622.325 309.952 643.607C319.54 635.057 325.067 622.135 324.626 609.296C324.074 593.203 315.048 579.302 306.113 565.54C303.645 561.74 301.185 557.95 298.912 554.128C286.128 532.633 278.632 507.721 279.399 482.724C280.166 457.728 289.528 432.755 306.811 414.68Z" fill="#00160A"/>
</svg>
